<?xml version="1.0" encoding="UTF-8"?>
<svg width="247px" height="36px" viewBox="0 0 247 36" version="1.1" xmlns="http://www.w3.org/2000/svg" xmlns:xlink="http://www.w3.org/1999/xlink">
    <!-- Generator: Sketch 41 (35326) - http://www.bohemiancoding.com/sketch -->
    <title>logo-fletcher</title>
    <desc>Created with Sketch.</desc>
    <defs></defs>
    <g id="Hotels-Original-Logos" stroke="none" stroke-width="1" fill="none" fill-rule="evenodd">
        <g id="logo-fletcher" fill="#00437D">
            <g>
                <path d="M116.207595,4.2207993 C118.408511,4.50731668 120.465526,4.58954589 122.021456,4.58954589 L128.404498,4.58954589 C129.255057,2.8537388 129.473478,2.44387762 129.792116,2.44387762 C130.108185,2.44387762 130.17885,2.8537388 130.17885,3.02076687 C130.17885,3.17880112 130.073494,3.51542692 129.930878,3.71843027 L129.501744,4.58954589 L133.764815,4.49189871 C130.884223,2.20618383 127.29055,0.82755984 123.376953,0.82755984 C120.006841,0.82755984 116.870568,1.85414005 114.2251,3.59637129 C114.696633,3.81993194 115.312067,4.04991674 116.207595,4.2207993" id="Fill-1"></path>
                <path d="M115.605394,33.7669084 C115.605394,28.5247967 121.81113,20.3519848 121.81113,18.2911154 C121.81113,17.6743963 121.597848,17.013993 120.857785,16.5141937 L119.578093,15.6944713 C119.328835,15.5287281 119.188789,15.2743315 119.188789,14.9839596 C119.256885,14.5265596 119.188789,14.8233557 119.434192,14.2027822 L120.107443,12.9230902 C120.323295,12.5119442 120.426081,12.3487706 120.712599,12.3487706 C121.065927,12.3487706 122.061672,13.45758 123.830884,14.2027822 L126.95174,7.72337791 C124.682728,7.84929138 122.453545,8.05229472 120.179394,8.05229472 C115.863645,8.05229472 113.604912,6.25867023 112.693967,4.72329683 C108.821485,7.94179923 106.341761,12.8678424 106.341761,18.4016108 C106.341761,25.2202106 110.116595,31.1214407 115.620812,34.0328684 C115.607964,33.9454999 115.605394,33.8542769 115.605394,33.7669084" id="Fill-3"></path>
                <path d="M135.280659,5.84444062 L135.107206,6.48428661 C134.96202,6.94168655 134.719187,7.18965899 134.327314,7.26674887 L128.088173,7.60080501 L124.751466,14.4964946 C127.127119,15.3175018 131.34779,15.5282141 132.021041,15.5282141 L134.785998,15.5282141 C135.00185,15.5282141 135.069946,15.6117282 135.069946,15.7749017 C135.069946,15.9830444 133.476755,18.0002295 129.473221,18.0002295 C126.384487,18.0002295 123.510319,17.2177673 123.050349,17.2177673 C122.802377,17.2177673 122.697021,17.4233403 122.697021,17.5890835 C122.697021,17.7946565 122.873043,18.4139452 122.873043,19.1167479 C122.873043,24.4719248 119.23697,32.5496592 117.286596,34.798114 C119.186862,35.5458858 121.227174,35.9750194 123.376697,35.9750194 C132.781662,35.9750194 140.409705,28.1105671 140.409705,18.3985273 C140.409705,13.4776234 138.440059,9.03596157 135.280659,5.84444062" id="Fill-5"></path>
                <path d="M5.14125245,24.8170305 L4.52453342,24.7964732 C3.43371165,24.7553586 3.31036785,24.7348013 2.94033643,24.7348013 C2.71420612,24.7348013 2.44696121,24.7553586 2.2002736,24.7553586 C1.54243998,24.7772007 1.19296586,24.7964732 0.288444627,24.8799872 L0.535132237,24.0962401 C0.677748511,24.0769677 0.780535015,24.0769677 0.843491749,24.0769677 C1.21352316,24.0564104 1.35742427,23.9934536 1.48076807,23.8097228 C1.62466918,23.6041497 1.66578378,23.2341183 1.68634108,22.3501544 L1.85079949,13.7944628 C1.85079949,13.6300044 1.74801298,13.5888898 1.43965347,13.5888898 C1.09017936,13.5888898 0.720147944,13.6081622 0.00064241565,13.731506 L0.288444627,12.9516134 C0.535132237,12.8886567 0.61736144,12.8886567 0.843491749,12.8680994 C1.23408046,12.8269848 1.87135679,12.8064275 2.75532072,12.8064275 L2.91977913,12.8064275 L5.26459625,12.8064275 C5.47016926,12.8064275 6.02521638,12.8064275 6.93102245,12.787155 C7.48606957,12.787155 7.75331448,12.7653129 7.93833019,12.703641 C8.06167399,12.6625264 8.1233459,12.6008545 8.2055751,12.498068 L8.3083616,12.498068 C8.2878043,12.6419691 8.267247,12.703641 8.2466897,12.8680994 C8.2261324,13.1160718 8.2055751,13.4244314 8.1850178,13.7944628 C8.1233459,14.5126835 8.1233459,14.7606559 8.10278859,15.4596041 L7.50662687,15.4596041 C7.54774147,15.1512446 7.54774147,15.0690154 7.54774147,14.904557 C7.54774147,14.5550829 7.44495497,14.287838 7.25865443,14.1644942 C7.11603816,14.0617077 6.95157975,14.0205931 6.58154834,13.9781936 C5.84020068,13.9178066 5.36738276,13.8972493 4.75066373,13.8972493 C4.46286152,13.8972493 4.23673121,13.8972493 3.68039926,13.9178066 L3.61872736,17.989437 L5.26459625,17.989437 C6.21151692,17.989437 6.72416461,17.9483224 6.97213705,17.8455359 C7.13659546,17.7825791 7.19826736,17.6399629 7.19826736,17.3508758 C7.19826736,17.3097612 7.19826736,17.2288168 7.17771006,17.1453028 L7.77387178,17.1453028 C7.75331448,17.3097612 7.73275718,17.4549471 7.73275718,17.5371763 C7.71219988,17.7427494 7.69164258,18.0511089 7.67108528,18.4635397 C7.65052798,19.0802587 7.62997068,19.5723491 7.62997068,19.9025508 L7.62997068,20.5398271 L6.99140952,20.5398271 C7.03380895,20.2520249 7.03380895,20.1492384 7.03380895,19.9231081 C7.03380895,19.5325194 6.99140952,19.3269464 6.84879325,19.2036025 C6.76656404,19.1406458 6.64193541,19.100816 6.4569197,19.0802587 C6.02521638,19.0378593 5.16180975,18.9980295 4.36007502,18.9980295 C4.19561661,18.9980295 3.9283717,18.9980295 3.57889759,19.017302 L3.49538355,23.7274936 L3.49538355,23.7480509 C3.49538355,23.8713947 3.51594085,23.9343514 3.57889759,23.9741812 C3.64056949,24.0152958 3.72279869,24.0152958 4.36007502,24.0152958 C4.70954913,24.0152958 4.93567944,24.0152958 5.49072656,23.9741812 L5.14125245,24.8170305 Z" id="Fill-7"></path>
                <path d="M19.409304,21.9587948 C19.1407743,22.6371857 19.0585451,22.8851582 18.8336996,23.6033789 C18.6062845,24.2624973 18.5664547,24.3652838 18.4212688,24.7558725 C18.0936368,24.8368169 17.6606486,24.8792163 16.7150128,24.8792163 C16.4272106,24.8792163 16.1188511,24.858659 15.8310489,24.858659 L14.5552114,24.8175444 C13.979607,24.7969871 13.4451171,24.7969871 12.9517419,24.7969871 C12.3748527,24.7969871 12.189837,24.7969871 11.5936752,24.8368169 L11.8403628,24.0761968 L12.1076078,24.0761968 C12.7872835,24.0761968 12.9722992,23.7280075 12.9928565,22.4727273 L13.1367576,13.9170357 C13.1367576,13.6703481 13.1162003,13.6305183 12.9517419,13.6305183 C12.9106273,13.6305183 12.8078408,13.6497908 12.6228251,13.6497908 L11.9225921,13.6909054 L11.4703314,13.7525773 L11.7581336,12.9302852 C12.3131808,12.848056 12.6228251,12.848056 13.4451171,12.8274987 L14.4729822,12.8069414 C15.3775034,12.8069414 15.6460332,12.7863841 16.5094398,12.7041549 L16.2421949,13.5058897 C16.0777365,13.5277318 15.9543927,13.5277318 15.8721635,13.5277318 C15.4802899,13.5470043 15.3363888,13.5881189 15.213045,13.7114627 C15.0691439,13.8553638 15.007472,14.2048379 14.9881995,14.9667429 L14.8430136,23.2333474 L14.8430136,23.2539047 C14.8430136,23.3990907 14.8635709,23.4813199 14.9458001,23.5417069 C15.0691439,23.6444935 15.5830764,23.6868929 16.6122263,23.6868929 C17.9073362,23.6868929 18.4212688,23.2333474 18.6486839,21.9587948 L19.409304,21.9587948 Z" id="Fill-9"></path>
                <path d="M31.024179,21.9587948 C30.9419498,22.1643678 30.9008352,22.2478818 30.818606,22.4534548 L30.2224443,23.8706238 L29.934642,24.5708568 L29.8524128,24.7147579 C29.3795949,24.7969871 28.8451051,24.8368169 28.2476586,24.8368169 C27.939299,24.8368169 27.6103822,24.8175444 27.2197935,24.8175444 L24.1760282,24.7764298 C24.0321271,24.7764298 23.7237675,24.7764298 23.2085502,24.7969871 C22.5314441,24.8175444 22.4684874,24.8175444 22.0573413,24.8792163 L22.3464284,24.0569243 L22.5507166,24.0569243 C23.3331788,24.0569243 23.4770799,23.8513513 23.4770799,22.6795851 L23.620981,13.7949767 C23.620981,13.6305183 23.5387518,13.5881189 23.2303923,13.5881189 C23.1070485,13.5881189 22.798689,13.6086762 22.5712739,13.6305183 C22.1806852,13.6497908 22.0791835,13.6703481 21.7489818,13.73202 L22.036784,12.9713998 C22.2217998,12.9302852 22.3464284,12.9097279 22.4492149,12.9097279 C22.8809182,12.848056 23.7443248,12.8069414 24.3199293,12.8069414 L27.9187417,12.8069414 C28.1654293,12.8069414 28.4943462,12.8069414 28.9273343,12.7863841 C29.4412668,12.7658268 29.6879544,12.7247122 29.8935274,12.642483 C29.996314,12.6013684 30.0579859,12.5396965 30.0991005,12.43691 L30.201887,12.43691 C30.1607724,12.6206409 30.1607724,12.6835976 30.1196578,12.9097279 C30.0579859,13.5881189 30.0168713,14.143166 29.9551993,15.4190035 L29.3384803,15.4190035 C29.3795949,15.1504737 29.3795949,15.0078575 29.3795949,14.8832288 C29.3795949,14.554312 29.3166382,14.3294665 29.1945792,14.2048379 C29.11235,14.1226087 28.9466068,14.0622216 28.7423186,14.0198222 C28.3915597,13.9787076 27.7953979,13.937593 26.9319913,13.937593 L25.4094662,13.937593 L25.3889089,17.9488363 L27.0142205,17.9488363 C28.6999192,17.9488363 28.9273343,17.8460498 28.9273343,17.1676589 L28.9273343,17.0841448 L29.4823814,17.0841448 C29.3590376,18.2777531 29.3384803,18.7724132 29.3166382,20.4157124 L28.7217613,20.4157124 C28.7615911,20.0867956 28.7821484,19.9441793 28.7821484,19.6756496 C28.7821484,19.3467328 28.7217613,19.1835592 28.5971327,19.1206024 C28.4737889,19.0383732 28.1654293,19.0178159 27.4048092,18.9972586 L25.3490791,18.9972586 L25.2861224,23.2333474 C25.2861224,23.3566912 25.327237,23.4389204 25.3889089,23.4813199 C25.5340948,23.5841064 26.2124858,23.625221 27.2814654,23.625221 C28.7821484,23.625221 29.3166382,23.5224345 29.6879544,23.1305609 C29.9757567,22.8222014 30.1813297,22.4534548 30.3046735,21.9587948 L31.024179,21.9587948 Z" id="Fill-11"></path>
                <path d="M41.1165289,24.7969871 C40.8287266,24.7969871 40.6231536,24.7764298 40.4998098,24.7764298 C39.4102729,24.7558725 39.2869291,24.7340304 38.9991269,24.7340304 C38.6894825,24.7340304 38.3194511,24.7558725 37.9288624,24.7558725 C37.147685,24.7969871 36.8598828,24.8175444 36.0787053,24.8997736 L36.3253929,24.1185962 C37.5177164,24.0967541 37.6410602,23.9335805 37.6616175,22.3699408 L37.8466332,13.9170357 L36.4487367,13.937593 C35.5442155,13.9581503 35.0919549,14.0403795 34.9069392,14.2048379 C34.7219235,14.3898536 34.6178521,14.7804423 34.6178521,15.316217 C34.6178521,15.4190035 34.6178521,15.5012327 34.6384094,15.6656911 L33.9600185,15.6656911 C34.062805,14.5967114 34.1244769,13.4236605 34.1244769,12.8878858 C34.1244769,12.7658268 34.1244769,12.6013684 34.1039196,12.3752381 L34.2067061,12.3752381 C34.2478207,12.4985819 34.2889353,12.5602538 34.3711645,12.6013684 C34.679524,12.7452695 35.1112274,12.7863841 36.4076221,12.7863841 L41.1576435,12.7863841 C42.3306944,12.7863841 43.1529865,12.7041549 43.3996741,12.5808111 C43.461346,12.5396965 43.5230179,12.4985819 43.5846898,12.3957954 L43.6874763,12.3957954 C43.5846898,12.8274987 43.5641325,12.9302852 43.5024606,13.73202 C43.4407887,14.4733676 43.4407887,14.6994979 43.4407887,14.9667429 C43.4407887,15.110644 43.4407887,15.3367743 43.461346,15.6232916 L42.7829551,15.6232916 C42.8240697,15.3367743 42.8240697,15.2339878 42.8240697,15.0476872 C42.8240697,14.1033362 42.6390539,13.9581503 41.4043311,13.937593 L39.6980751,13.9170357 L39.5130594,23.8089519 L39.5130594,23.830794 C39.5130594,24.0158097 39.5336167,24.0158097 40.2120076,24.0158097 C40.7464974,24.0158097 40.8903985,24.0158097 41.3221019,23.9541378 L41.1165289,24.7969871 Z" id="Fill-13"></path>
                <path d="M56.7421332,21.4042616 C56.5160029,21.8359649 56.454331,21.9785812 56.248758,22.391012 C56.0842996,22.7404861 55.9403985,23.0475608 55.8170547,23.3366479 C55.6307541,23.7683512 55.5485249,23.9739242 55.3635092,24.4878567 C54.4178734,24.8167735 53.4105656,24.9825168 52.2991866,24.9825168 C51.0040766,24.9825168 50.0173262,24.7345443 49.1333622,24.2000545 C47.466936,23.2133041 46.4801856,21.3220324 46.4801856,19.1211164 C46.4801856,17.578034 46.9530035,16.1595802 47.7958529,15.0276439 C48.2686708,14.4109248 48.8237179,13.9175496 49.4404369,13.5667907 C50.346243,13.054143 51.7030248,12.7239413 52.9377477,12.7239413 C53.1022061,12.7239413 53.4927948,12.7239413 54.0889566,12.7457835 L54.9742053,12.7650559 L55.2196081,12.7650559 C55.7335406,12.7650559 55.9185563,12.7046689 56.0020704,12.5183683 L56.103572,12.5183683 C55.9609558,13.1158149 55.8363271,14.3492529 55.8363271,15.2948888 L55.8363271,15.7895488 L55.1784935,15.7895488 C55.2196081,15.5004618 55.2414502,15.3976753 55.2414502,15.2743315 C55.2414502,15.0893158 55.1784935,14.8837427 55.0962643,14.7192843 C54.9742053,14.493154 54.7879048,14.3286956 54.5206599,14.204067 C53.9450555,13.9586642 53.1844353,13.8147631 52.4854871,13.8147631 C49.995484,13.8147631 48.4742438,15.6032483 48.4742438,18.5031125 C48.4742438,21.6098346 50.2434565,23.7285214 52.8336764,23.7285214 C54.3767588,23.7285214 55.5292524,22.8432727 55.9185563,21.4042616 L56.7421332,21.4042616 Z" id="Fill-15"></path>
                <path d="M71.6262614,24.8370739 C71.4412457,24.8165166 71.2973446,24.7972441 71.1945581,24.7972441 C71.0300997,24.7766868 70.7628548,24.7766868 70.3517087,24.7561295 L69.1786578,24.7561295 C68.5002668,24.7561295 68.0274489,24.7766868 66.9173547,24.8794733 L67.1627575,24.097011 C67.8013186,24.0764537 67.9452197,24.0571813 68.1302354,23.9543948 C68.3563657,23.831051 68.4385949,23.5021341 68.4591522,22.7196719 L68.5208241,19.1003021 L62.5155226,19.1003021 L62.4332934,23.5625212 L62.4332934,23.7680942 C62.4332934,23.9736672 62.5155226,24.0147818 62.947226,24.0147818 C63.3378147,24.0147818 63.5652298,24.0147818 64.0997196,23.9736672 L63.7900753,24.8370739 L63.5022731,24.8165166 L62.8649968,24.7972441 C62.5771945,24.7766868 61.9193609,24.7561295 61.2820846,24.7561295 L60.8696537,24.7561295 C60.2118201,24.7766868 59.9240179,24.7972441 59.1428405,24.9000306 L59.4100854,24.0764537 C59.9651325,24.0571813 60.067919,24.0571813 60.1925477,23.9736672 C60.479065,23.8092088 60.5818515,23.4391774 60.6024088,22.4100275 L60.7874245,13.9584072 L60.7874245,13.9172926 C60.7874245,13.670605 60.7270375,13.6294904 60.4173931,13.6294904 C60.0473617,13.6294904 59.7390022,13.6500477 59.1017259,13.7322769 L59.3895281,12.848313 L60.6229661,12.848313 C62.679981,12.8264709 62.9883406,12.8071984 64.0997196,12.7044119 L63.8106326,13.5267039 C63.2144709,13.5472612 63.0500125,13.5883758 62.8855541,13.6911623 C62.7005384,13.8556207 62.5977518,14.143423 62.5977518,14.6779128 L62.5360799,18.0300376 L68.5413814,18.0300376 L68.6236106,13.876178 C68.6236106,13.7117196 68.5413814,13.6294904 68.3358084,13.6294904 C68.2741365,13.6294904 68.1096781,13.6294904 67.8424332,13.6500477 L67.2462715,13.670605 L66.9584693,13.7117196 L67.265544,12.848313 L68.0891208,12.848313 L68.9936421,12.848313 C69.8364914,12.848313 70.4956098,12.8264709 71.2973446,12.7660838 L71.872949,12.7236844 L71.6057041,13.5061466 C70.5983964,13.5472612 70.4750525,13.670605 70.4532104,14.7408695 L70.2900368,23.7475369 C70.2900368,23.9736672 70.3709812,24.0147818 70.7834121,24.0147818 C71.0712143,24.0147818 71.4001311,23.9942245 71.9551782,23.9543948 L71.6262614,24.8370739 Z" id="Fill-17"></path>
                <path d="M83.8967858,21.9587948 C83.8145566,22.1643678 83.773442,22.2478818 83.6912128,22.4534548 L83.095051,23.8706238 L82.8072488,24.5708568 L82.7250196,24.7147579 C82.2522017,24.7969871 81.7177119,24.8368169 81.1202653,24.8368169 C80.8119058,24.8368169 80.482989,24.8175444 80.0924003,24.8175444 L77.0486349,24.7764298 C76.9047338,24.7764298 76.5963743,24.7764298 76.0824418,24.7969871 C75.4040509,24.8175444 75.3410941,24.8175444 74.9299481,24.8792163 L75.2190352,24.0569243 L75.4233233,24.0569243 C76.2057856,24.0569243 76.3496867,23.8513513 76.3496867,22.6795851 L76.4935878,13.7949767 C76.4935878,13.6305183 76.4113586,13.5881189 76.1029991,13.5881189 C75.9796553,13.5881189 75.6712958,13.6086762 75.4438806,13.6305183 C75.0532919,13.6497908 74.9517902,13.6703481 74.6215886,13.73202 L74.9093908,12.9713998 C75.0944065,12.9302852 75.2190352,12.9097279 75.3218217,12.9097279 C75.753525,12.848056 76.6169316,12.8069414 77.192536,12.8069414 L80.7913485,12.8069414 C81.0380361,12.8069414 81.3669529,12.8069414 81.7999411,12.7863841 C82.3138736,12.7658268 82.5605612,12.7247122 82.7661342,12.642483 C82.8689207,12.6013684 82.9305926,12.5396965 82.9717072,12.43691 L83.0744937,12.43691 C83.0333791,12.6206409 83.0333791,12.6835976 82.9922645,12.9097279 C82.9305926,13.5881189 82.889478,14.143166 82.8278061,15.4190035 L82.2110871,15.4190035 C82.2522017,15.1504737 82.2522017,15.0078575 82.2522017,14.8832288 C82.2522017,14.554312 82.189245,14.3294665 82.067186,14.2048379 C81.9849568,14.1226087 81.8192135,14.0622216 81.6149254,14.0198222 C81.2641664,13.9787076 80.6680047,13.937593 79.8045981,13.937593 L78.282073,13.937593 L78.2615157,17.9488363 L79.8868273,17.9488363 C81.5725259,17.9488363 81.7999411,17.8460498 81.7999411,17.1676589 L81.7999411,17.0841448 L82.3549882,17.0841448 C82.2316444,18.2777531 82.2110871,18.7724132 82.189245,20.4157124 L81.5943681,20.4157124 C81.6341978,20.0867956 81.6547551,19.9441793 81.6547551,19.6756496 C81.6547551,19.3467328 81.5943681,19.1835592 81.4697394,19.1206024 C81.3463956,19.0383732 81.0380361,19.0178159 80.277416,18.9972586 L78.2216859,18.9972586 L78.1587292,23.2333474 C78.1587292,23.3566912 78.1998438,23.4389204 78.2615157,23.4813199 C78.4067016,23.5841064 79.0850925,23.625221 80.1540722,23.625221 C81.6547551,23.625221 82.189245,23.5224345 82.5605612,23.1305609 C82.8483634,22.8222014 83.0539364,22.4534548 83.1772802,21.9587948 L83.8967858,21.9587948 Z" id="Fill-19"></path>
                <path d="M90.8641689,18.4831976 C91.5836745,18.4831976 92.0153778,18.4009684 92.4059665,18.1941106 C93.003413,17.8664786 93.3528872,17.1456883 93.3528872,16.2617243 C93.3528872,14.6775273 92.3237373,13.7113342 90.6585959,13.7113342 C90.5558094,13.7113342 90.4119083,13.7318915 90.2256078,13.7318915 L90.1652207,18.442083 C90.4735802,18.4831976 90.5763667,18.4831976 90.8641689,18.4831976 L90.8641689,18.4831976 Z M97.1778299,24.8585305 C96.6433401,24.9831592 96.1692374,25.0422614 95.7388189,25.0422614 C95.2852734,25.0422614 94.8754123,24.8996451 94.5452106,24.6324002 C94.3601949,24.4679418 94.1957365,24.2623688 94.0312781,24.0362385 C93.5790175,23.3784049 93.3734445,23.0070886 92.1387216,20.4978131 C91.9948205,20.2112957 91.7892475,19.7988649 91.5014453,19.2232605 C91.1108565,19.2643751 90.9875127,19.2643751 90.802497,19.2643751 C90.6174813,19.2643751 90.4735802,19.2438178 90.1433786,19.2232605 L90.0829915,23.6867644 L90.0829915,23.7060369 C90.0829915,23.9540093 90.1652207,23.9938391 90.5146948,23.9938391 C90.6997105,23.9938391 90.9258408,23.9938391 91.1725284,23.9732818 L91.7275756,23.9540093 L91.3986588,24.8174159 C90.4324656,24.755744 90.0624342,24.755744 89.1155135,24.755744 C88.0259766,24.755744 87.7381744,24.755744 86.8529256,24.8996451 L87.1008981,24.0966256 C87.6148306,24.0773531 87.779289,24.0567958 87.9437474,23.9540093 C88.0670912,23.8704953 88.1493204,23.7484363 88.190435,23.5839779 C88.2726642,23.2961757 88.2726642,23.1509897 88.2932215,22.3286977 L88.396008,13.9169072 L88.396008,13.8976347 C88.396008,13.7318915 88.3754507,13.6907769 88.3343361,13.6496623 C88.2726642,13.5879904 88.1082058,13.5468758 87.9026328,13.5468758 C87.4914868,13.5468758 86.9557121,13.6085477 86.5047363,13.6702196 L86.7103093,12.9507141 C86.8747677,12.9301568 86.9981116,12.9095995 87.0803408,12.9095995 C88.0054193,12.7656983 89.5485017,12.6834691 90.9875127,12.6834691 C92.5909822,12.6834691 93.3734445,12.8684849 94.09295,13.4029747 C94.7918982,13.9169072 95.120815,14.6376976 95.120815,15.5833334 C95.120815,17.0223444 94.09295,18.4626403 92.8582271,18.8121144 C93.0239704,18.9354583 93.0856423,18.9971302 93.2295434,19.1834307 C93.5173456,19.5521773 93.8257051,20.0057227 94.0518354,20.3950266 L94.8535701,21.732536 C94.9974712,21.9792236 95.2043291,22.2875831 95.4702891,22.6987291 C95.9855065,23.4811914 96.2733087,23.8306655 96.6227828,24.0773531 C96.7461266,24.1801396 96.9311423,24.2623688 97.0544861,24.2829261 C97.1354305,24.3021986 97.1572726,24.3021986 97.321731,24.3021986 L97.4039603,24.3021986 L97.1778299,24.8585305 Z" id="Fill-21"></path>
                <path d="M162.103953,24.1896474 C161.917653,24.1690901 161.775036,24.1498176 161.67225,24.1498176 C161.506507,24.1292603 161.240546,24.1292603 160.8294,24.108703 L159.655065,24.108703 C158.976674,24.108703 158.505141,24.1292603 157.393762,24.2320468 L157.639164,23.4495845 C158.276441,23.4290272 158.422911,23.4097548 158.607927,23.3069683 C158.834057,23.1836245 158.915002,22.8547077 158.936844,22.0722454 L158.997231,18.4528756 L152.991929,18.4528756 L152.9097,22.9150947 L152.9097,23.1206677 C152.9097,23.3262407 152.991929,23.3673553 153.423633,23.3673553 C153.815506,23.3673553 154.041637,23.3673553 154.576126,23.3262407 L154.266482,24.1896474 L153.98125,24.1690901 L153.343973,24.1498176 C153.054886,24.1292603 152.397053,24.108703 151.757207,24.108703 L151.34863,24.108703 C150.688227,24.1292603 150.402994,24.1498176 149.619247,24.2526041 L149.887777,23.4290272 C150.442824,23.4097548 150.545611,23.4097548 150.668955,23.3262407 C150.956757,23.1617823 151.059543,22.7917509 151.080101,21.762601 L151.265116,13.3109808 L151.265116,13.2698662 C151.265116,13.0231785 151.203444,12.9820639 150.8938,12.9820639 C150.525053,12.9820639 150.216694,13.0026212 149.579418,13.0848504 L149.868505,12.2008865 L151.100658,12.2008865 C153.157673,12.1790444 153.466032,12.1597719 154.576126,12.0569854 L154.289609,12.8792774 C153.692163,12.8998347 153.526419,12.9409493 153.363246,13.0437358 C153.17823,13.2081942 153.075444,13.4959965 153.075444,14.0304863 L153.012487,17.3826111 L159.017788,17.3826111 L159.100017,13.2287516 C159.100017,13.0642931 159.017788,12.9820639 158.81093,12.9820639 C158.751828,12.9820639 158.586085,12.9820639 158.320125,13.0026212 L157.722678,13.0231785 L157.433591,13.0642931 L157.741951,12.2008865 L158.565528,12.2008865 L159.471334,12.2008865 C160.314183,12.2008865 160.972017,12.1790444 161.775036,12.1186573 L162.349356,12.0762579 L162.083396,12.8587201 C161.074803,12.8998347 160.952744,13.0231785 160.932187,14.093443 L160.766444,23.1001104 C160.766444,23.3262407 160.848673,23.3673553 161.261104,23.3673553 C161.546336,23.3673553 161.877823,23.346798 162.43287,23.3069683 L162.103953,24.1896474 Z" id="Fill-23"></path>
                <path d="M176.038848,13.1055362 C174.001105,13.1055362 172.603209,14.9762506 172.603209,17.7116564 C172.603209,20.8800504 174.206678,23.1837529 176.407594,23.1837529 C178.465894,23.1837529 179.883063,21.3310262 179.883063,18.6585771 L179.883063,18.514676 C179.803404,15.3873966 178.176807,13.1055362 176.038848,13.1055362 M175.893662,24.3555191 C172.808782,24.3555191 170.607866,21.8873582 170.607866,18.4324468 C170.607866,14.7501203 173.118426,11.995442 176.491109,11.995442 C179.700617,11.995442 181.857849,14.4212035 181.857849,18.0007435 C181.857849,21.659943 179.329301,24.3555191 175.893662,24.3555191" id="Fill-25"></path>
                <path d="M197.21351,24.1495606 C196.924423,24.1495606 196.71885,24.1290033 196.596791,24.1290033 C195.507254,24.108446 195.381341,24.0866039 195.096108,24.0866039 C194.786464,24.0866039 194.415148,24.108446 194.027129,24.108446 C193.243381,24.1495606 192.955579,24.1701179 192.174402,24.2523471 L192.421089,23.4711697 C193.614698,23.4493276 193.738041,23.286154 193.758599,21.7225143 L193.943614,13.2696092 L192.545718,13.2901665 C191.639912,13.3107238 191.188936,13.392953 191.002636,13.5574114 C190.816335,13.7424271 190.713549,14.1330158 190.713549,14.6687905 C190.713549,14.771577 190.713549,14.8538062 190.734106,15.0182646 L190.057,15.0182646 C190.159786,13.9492849 190.220173,12.776234 190.220173,12.2404593 C190.220173,12.1184003 190.220173,11.9539419 190.199616,11.7278116 L190.302403,11.7278116 C190.344802,11.8511554 190.385917,11.9128273 190.468146,11.9539419 C190.776505,12.097843 191.208209,12.1389576 192.503319,12.1389576 L197.25334,12.1389576 C198.425106,12.1389576 199.248683,12.0567284 199.496655,11.9333846 C199.557042,11.89227 199.619999,11.8511554 199.680386,11.7483689 L199.783173,11.7483689 C199.680386,12.1800722 199.659829,12.2828587 199.599442,13.0845935 C199.53777,13.8259411 199.53777,14.0520714 199.53777,14.3193164 C199.53777,14.4632175 199.53777,14.6893478 199.557042,14.9758652 L198.879936,14.9758652 C198.919766,14.6893478 198.919766,14.5865613 198.919766,14.4002607 C198.919766,13.4559097 198.73475,13.3107238 197.502597,13.2901665 L195.793772,13.2696092 L195.610041,23.1615254 L195.610041,23.1833675 C195.610041,23.3683832 195.630598,23.3683832 196.307704,23.3683832 C196.842194,23.3683832 196.98738,23.3683832 197.419083,23.3067113 L197.21351,24.1495606 Z" id="Fill-27"></path>
                <path d="M216.496001,21.3113683 C216.413772,21.5169413 216.372658,21.6004553 216.290428,21.8060283 L215.692982,23.2231973 L215.403895,23.9234303 L215.324235,24.0673314 C214.850132,24.1495606 214.315643,24.1893904 213.718196,24.1893904 C213.412406,24.1893904 213.08092,24.1701179 212.691616,24.1701179 L209.647851,24.1290033 C209.502665,24.1290033 209.19302,24.1290033 208.681657,24.1495606 C208.001982,24.1701179 207.941595,24.1701179 207.529164,24.2317898 L207.815681,23.4094978 L208.021254,23.4094978 C208.805001,23.4094978 208.947617,23.2039248 208.947617,22.0321587 L209.092803,13.1462654 C209.092803,12.9830918 209.010574,12.9406924 208.702215,12.9406924 C208.578871,12.9406924 208.270511,12.9612497 208.044381,12.9830918 C207.652507,13.0023643 207.549721,13.0229216 207.220804,13.0845935 L207.507322,12.3239733 C207.692337,12.2828587 207.815681,12.2623014 207.918468,12.2623014 C208.350171,12.2006295 209.216147,12.1595149 209.790467,12.1595149 L213.389279,12.1595149 C213.637252,12.1595149 213.966169,12.1595149 214.397872,12.1389576 C214.913089,12.1184003 215.158492,12.0772857 215.364065,11.9950565 C215.466851,11.9539419 215.529808,11.89227 215.569638,11.7894835 L215.672424,11.7894835 C215.632595,11.9732144 215.632595,12.0361711 215.590195,12.2623014 C215.529808,12.9406924 215.487409,13.4957395 215.427022,14.771577 L214.810303,14.771577 C214.850132,14.5030472 214.850132,14.360431 214.850132,14.2358023 C214.850132,13.9068855 214.789745,13.6807552 214.663832,13.5574114 C214.584172,13.4751822 214.418429,13.4147951 214.212856,13.3723957 C213.863382,13.3312811 213.265935,13.2901665 212.402529,13.2901665 L210.882573,13.2901665 L210.859446,17.3014098 L212.486043,17.3014098 C214.171742,17.3014098 214.397872,17.1986233 214.397872,16.5189475 L214.397872,16.4367183 L214.952919,16.4367183 C214.829575,17.6303266 214.810303,18.1237018 214.789745,19.7682859 L214.192299,19.7682859 C214.232129,19.4393691 214.255256,19.2967528 214.255256,19.0282231 C214.255256,18.6993063 214.192299,18.5361327 214.068955,18.473176 C213.946896,18.3909467 213.637252,18.3703894 212.875347,18.3498321 L210.819617,18.3498321 L210.75666,22.5859209 C210.75666,22.7092647 210.799059,22.791494 210.859446,22.8338934 C211.005917,22.9366799 211.683023,22.9777945 212.752003,22.9777945 C214.255256,22.9777945 214.789745,22.875008 215.158492,22.4831344 C215.447579,22.1747749 215.653152,21.8060283 215.775211,21.3113683 L216.496001,21.3113683 Z" id="Fill-29"></path>
                <path d="M232.365724,21.3113683 C232.097194,21.9897592 232.017534,22.2377317 231.788834,22.9559524 C231.562704,23.6150708 231.522874,23.7178573 231.378973,24.108446 C231.048772,24.1893904 230.617068,24.2317898 229.670148,24.2317898 C229.384915,24.2317898 229.075271,24.2112325 228.787468,24.2112325 L227.512916,24.1701179 C226.934742,24.1495606 226.400252,24.1495606 225.909446,24.1495606 C225.331272,24.1495606 225.146257,24.1495606 224.55138,24.1893904 L224.796782,23.4287703 L225.065312,23.4287703 C225.743703,23.4287703 225.928719,23.080581 225.949276,21.8253008 L226.091892,13.2696092 C226.091892,13.0229216 226.07262,12.9830918 225.909446,12.9830918 C225.865762,12.9830918 225.762976,13.0023643 225.57796,13.0023643 L224.880296,13.0434789 L224.428036,13.1051508 L224.714553,12.2828587 C225.27217,12.2006295 225.57796,12.2006295 226.400252,12.1800722 L227.429402,12.1595149 C228.335208,12.1595149 228.601168,12.1389576 229.464575,12.0567284 L229.198614,12.8584632 C229.032871,12.8803053 228.910812,12.8803053 228.827298,12.8803053 C228.437994,12.8995778 228.292808,12.9406924 228.169465,13.0640362 C228.026848,13.2079373 227.963892,13.5574114 227.944619,14.3193164 L227.800718,22.5859209 L227.800718,22.6064782 C227.800718,22.7516642 227.821275,22.8338934 227.903505,22.8942805 C228.026848,22.997067 228.540781,23.0394664 229.567361,23.0394664 C230.865041,23.0394664 231.378973,22.5859209 231.605103,21.3113683 L232.365724,21.3113683 Z" id="Fill-31"></path>
                <path d="M245.685698,14.9762506 C245.728098,14.7925197 245.728098,14.7308478 245.728098,14.5663894 C245.728098,14.1539586 245.685698,13.9483856 245.499398,13.7235401 C245.214165,13.3316665 244.576889,13.1260935 243.793142,13.1260935 C242.724162,13.1260935 242.047056,13.6605834 242.047056,14.52399 C242.047056,15.2434955 242.478759,15.7998275 243.629968,16.6426768 L244.493375,17.2388385 C245.440295,17.9172294 245.625311,18.0816879 246.014615,18.5557906 C246.46816,19.1301102 246.714848,19.8303433 246.714848,20.6115207 C246.714848,22.7918794 244.885248,24.3953489 242.43636,24.3953489 C241.655182,24.3953489 240.749376,24.2321753 239.866697,23.9238158 C239.866697,23.6976855 239.88597,23.5319422 239.88597,23.4291557 C239.929654,22.8753934 239.948926,22.1340458 239.948926,21.6817852 C239.948926,21.3939829 239.948926,21.3117537 239.929654,21.0226667 L240.626033,21.0226667 C240.60676,21.2089672 240.60676,21.2911964 240.60676,21.4145402 C240.60676,22.5246345 241.386653,23.1413535 242.787119,23.1413535 C244.164458,23.1413535 245.090821,22.4000059 245.090821,21.2911964 C245.090821,21.1254532 245.068979,20.9828369 245.027865,20.8594931 C244.964908,20.6539201 244.862121,20.4483471 244.719505,20.2620466 C244.474102,19.8920152 244.185015,19.6247702 243.527182,19.1108377 L242.355415,18.1844744 C240.954949,17.0743801 240.441017,16.2726454 240.441017,15.1818236 C240.441017,13.2905519 242.004657,12.0147145 244.308359,12.0147145 C244.576889,12.0147145 244.842849,12.0147145 245.111379,12.0365566 L245.603469,12.0763864 L245.809042,12.0763864 C246.180358,12.0763864 246.385931,11.995442 246.446318,11.8309836 L246.549105,11.8309836 C246.406489,12.6519908 246.385931,13.0438643 246.365374,14.9762506 L245.685698,14.9762506 Z" id="Fill-33"></path>
            </g>
        </g>
    </g>
</svg>